<svg width="48" height="48" viewBox="0 0 48 48" fill="none" xmlns="http://www.w3.org/2000/svg">
    <path d="M26.978 16.055L27.028 16.0926L46.0527 27.0246C45.1187 32.2427 42.382 37.0102 38.3307 40.458C34.2142 43.961 28.9711 45.8915 23.5651 45.8915C17.4606 45.8915 11.7217 43.5053 7.40246 39.171C3.08574 34.8368 0.707031 29.0728 0.707031 22.9457C0.707031 16.8187 3.08574 11.0547 7.40246 6.72047C11.7192 2.38622 17.4581 0 23.5651 0C28.2299 0 32.7144 1.40218 36.5354 4.05131C40.2687 6.64035 43.1256 10.2385 44.8007 14.4575C45.0136 14.9984 45.2114 15.5542 45.3841 16.1126L41.3203 18.4763C41.1801 17.9154 41.0123 17.357 40.8195 16.8137C38.2305 9.48978 31.2947 4.56712 23.5651 4.56712C13.4694 4.56712 5.25662 12.8125 5.25662 22.9457C5.25662 33.079 13.4694 41.3244 23.5651 41.3244C27.4888 41.3244 31.2296 40.0925 34.387 37.7588C37.4793 35.4728 39.7479 32.3404 40.9472 28.7022L40.9597 28.6221L18.7727 15.8797V29.6963L26.4221 25.2719L30.3607 27.5304L18.8954 34.1632L14.8416 31.8446V13.7564L18.8904 11.4153L26.9805 16.0575L26.978 16.055Z"
          fill="#CED0D6"></path>
</svg>